<svg xmlns="http://www.w3.org/2000/svg" fill="none" width="256px" height="256px"><path fill="#0C9AFF" d="M118.119 6.498a18 18 0 0 1 19.774 0l5.121 3.367a17.999 17.999 0 0 0 13.672 2.556l5.992-1.29a18 18 0 0 1 18.438 7.144l3.56 4.989a17.998 17.998 0 0 0 11.826 7.322l6.052.962a18 18 0 0 1 14.613 13.322l1.517 5.938a18.002 18.002 0 0 0 8.382 11.1l5.296 3.084a18 18 0 0 1 8.814 17.7l-.73 6.085c-.575 4.79.796 9.61 3.806 13.379l3.824 4.788a18 18 0 0 1 1.825 19.69l-2.879 5.41a17.998 17.998 0 0 0-1.284 13.85l1.836 5.847a18 18 0 0 1-5.411 19.019l-4.639 4.004a18 18 0 0 0-6.2 12.451l-.4 6.116a18.001 18.001 0 0 1-11.916 15.78l-5.773 2.058a18.001 18.001 0 0 0-10.279 9.37l-2.582 5.558a18 18 0 0 1-16.812 10.41l-6.126-.166a17.994 17.994 0 0 0-12.97 5.025l-4.416 4.249a17.998 17.998 0 0 1-19.437 3.634l-5.653-2.368a17.997 17.997 0 0 0-13.909 0l-5.653 2.368a17.997 17.997 0 0 1-19.437-3.634l-4.415-4.249a17.996 17.996 0 0 0-12.97-5.025l-6.126.166a18 18 0 0 1-16.813-10.41l-2.582-5.558a18 18 0 0 0-10.279-9.37l-5.772-2.058a18 18 0 0 1-11.917-15.78l-.4-6.116a18 18 0 0 0-6.2-12.451l-4.639-4.004a18 18 0 0 1-5.411-19.019l1.836-5.847a18 18 0 0 0-1.283-13.85l-2.88-5.41a18 18 0 0 1 1.825-19.69l3.824-4.788a18.002 18.002 0 0 0 3.807-13.379l-.73-6.085a18 18 0 0 1 8.813-17.7l5.296-3.084a18 18 0 0 0 8.383-11.1l1.516-5.938a18 18 0 0 1 14.613-13.322l6.053-.962a18 18 0 0 0 11.826-7.322l3.56-4.99a18 18 0 0 1 18.438-7.142l5.991 1.289a18.001 18.001 0 0 0 13.673-2.556l5.121-3.367Z"/><path fill="#fff" d="M125.959 235.696c59.647 0 108-48.353 108-108s-48.353-108-108-108c-59.646 0-108 48.353-108 108s48.354 108 108 108Z"/><path fill="#39485A" d="M148.552 214.343a1.13 1.13 0 0 1 .659.025 1.132 1.132 0 0 1 .764 1.005 1.138 1.138 0 0 1-1.286 1.196 1.138 1.138 0 0 1-.947-.836 1.115 1.115 0 0 1 .405-1.202c.121-.089.259-.153.405-.188Z"/><circle cx="126.403" cy="126.152" r="72.488" fill="#B1D268"/><path fill="#000" d="M83.312 43.5a3.25 3.25 0 0 1 1.526.292c.362.159.673.417.898.745a.228.228 0 0 1 .045.206.29.29 0 0 1-.138.168l-.457.25c-.174.097-.3.112-.385.084a2.95 2.95 0 0 0-1.293-.534 2.875 2.875 0 0 0-1.597.464 2.9 2.9 0 0 0-1.078 1.273 2.388 2.388 0 0 0 .232 1.874 57.958 57.958 0 0 0 1.017 1.874 2.532 2.532 0 0 0 1.481 1.268 2.41 2.41 0 0 0 1.812-.295 2.587 2.587 0 0 0 1.264-1.364 2.332 2.332 0 0 0-.297-1.906l-.174-.317-1.599.879a.314.314 0 0 1-.26.024.332.332 0 0 1-.206-.166l-.225-.404a.35.35 0 0 1-.026-.264.333.333 0 0 1 .162-.206l2.338-1.321a.345.345 0 0 1 .261-.025c.087.027.16.086.206.166l.58 1.07a3.8 3.8 0 0 1 .497 1.81 3.038 3.038 0 0 1-.5 1.71 3.946 3.946 0 0 1-1.492 1.329 3.43 3.43 0 0 1-2.802.424 3.774 3.774 0 0 1-2.06-1.773c-.134-.22-.317-.548-.557-.989-.24-.44-.409-.765-.525-.996a4.235 4.235 0 0 1-.465-1.757c-.01-.592.153-1.17.47-1.665a4.002 4.002 0 0 1 1.52-1.355 4.028 4.028 0 0 1 1.827-.574ZM91.802 46.845l.034 1.831a.48.48 0 0 1-.334.487l-.435.18a.269.269 0 0 1-.215-.007.263.263 0 0 1-.15-.15.539.539 0 0 1-.04-.183l-.181-8.675a.584.584 0 0 1 .078-.37.572.572 0 0 1 .287-.241l.703-.284a.583.583 0 0 1 .687.173l5.943 6.328c.046.042.086.091.116.146a.281.281 0 0 1-.004.217.26.26 0 0 1-.148.15l-.435.18a.457.457 0 0 1-.576-.111l-1.255-1.33-4.075 1.659Zm3.226-2.565-3.343-3.583.087 4.893 3.256-1.31ZM103.986 36.032c.343.15.646.38.884.67.238.292.404.635.485 1.003a2.591 2.591 0 0 1-.033 1.7 2.708 2.708 0 0 1-1.029 1.222l2.764 2.73c.034.036.059.08.074.128.01.036.014.073.01.11a.296.296 0 0 1-.103.188.243.243 0 0 1-.098.045l-.526.147a.58.58 0 0 1-.617-.18l-2.676-2.65-2.096.592.89 3.149a.357.357 0 0 1-.033.262.344.344 0 0 1-.204.164l-.508.11a.34.34 0 0 1-.261-.035.335.335 0 0 1-.163-.208l-2.255-7.981a.35.35 0 0 1 .237-.426l2.954-.825a3.495 3.495 0 0 1 2.304.085Zm-1.209 4.024c1.223-.344 1.721-1.03 1.42-2.008a1.295 1.295 0 0 0-.779-.974 2.377 2.377 0 0 0-1.471.044l-2.066.58.83 2.938 2.066-.58ZM110.728 40.993l-.34 1.782a.473.473 0 0 1-.439.397l-.452.098a.292.292 0 0 1-.288-.133.262.262 0 0 1-.037-.105.452.452 0 0 1 .024-.182l1.752-8.485a.582.582 0 0 1 .492-.508l.753-.117a.58.58 0 0 1 .631.33l4.377 7.503a.609.609 0 0 1 .076.167.281.281 0 0 1-.052.208.256.256 0 0 1-.175.117l-.459.1a.471.471 0 0 1-.311-.028.489.489 0 0 1-.23-.216l-.932-1.578-4.39.65Zm3.721-1.766-2.469-4.245-.997 4.813 3.466-.568ZM125.385 41.442a1.413 1.413 0 0 1-.242-.27l-4.417-6.1.301 6.304a.339.339 0 0 1-.09.243.337.337 0 0 1-.234.117l-.522.015a.343.343 0 0 1-.246-.091.351.351 0 0 1-.113-.239l-.391-8.274a.337.337 0 0 1 .088-.25.357.357 0 0 1 .235-.11l.445-.017a.422.422 0 0 1 .285.089c.091.082.173.175.243.276l4.417 6.1-.3-6.304a.316.316 0 0 1 .095-.244.331.331 0 0 1 .234-.117l.516-.02a.331.331 0 0 1 .248.098.306.306 0 0 1 .111.238l.391 8.275a.308.308 0 0 1-.089.242.333.333 0 0 1-.234.117l-.444.017a.406.406 0 0 1-.287-.095ZM136.176 33.13c.06.068.092.158.087.25l-.028.459a.334.334 0 0 1-.117.235.339.339 0 0 1-.254.055l-2.368-.142-.452 7.45a.335.335 0 0 1-.114.24.33.33 0 0 1-.25.082l-.52-.031a.328.328 0 0 1-.234-.12.353.353 0 0 1-.088-.25l.459-7.453-2.362-.144a.355.355 0 0 1-.322-.37l.029-.459a.346.346 0 0 1 .364-.322l5.933.42a.325.325 0 0 1 .237.1ZM138.523 42.28a.366.366 0 0 1-.058-.263l1.121-8.204a.351.351 0 0 1 .135-.228.342.342 0 0 1 .254-.066l.51.08a.33.33 0 0 1 .225.135.324.324 0 0 1 .056.256l-1.137 8.188a.32.32 0 0 1-.253.278.333.333 0 0 1-.133.002l-.516-.078a.33.33 0 0 1-.204-.1ZM144.493 41.343l-1.018 1.534a.46.46 0 0 1-.548.197l-.459-.11a.273.273 0 0 1-.177-.126.275.275 0 0 1-.047-.213.53.53 0 0 1 .087-.163l4.801-7.169a.576.576 0 0 1 .646-.278l.747.18a.591.591 0 0 1 .467.555l1.246 8.588c.016.062.02.126.009.189a.288.288 0 0 1-.327.222l-.46-.11a.474.474 0 0 1-.413-.43l-.269-1.807-4.285-1.06Zm4.112-.197-.696-4.86-2.731 4.041 3.427.82ZM156.717 46.904a.355.355 0 0 1-.034-.132.36.36 0 0 1 .02-.134l2.837-7.733a.34.34 0 0 1 .314-.22c.044 0 .089.008.13.025l.488.183a.353.353 0 0 1 .19.182c.02.042.031.086.033.132a.324.324 0 0 1-.02.135l-2.837 7.732a.318.318 0 0 1-.179.19.315.315 0 0 1-.258.004l-.497-.194a.348.348 0 0 1-.187-.17ZM166.043 51.014a1.33 1.33 0 0 1-.079-.357l-1.069-7.461-2.645 5.672a.32.32 0 0 1-.195.174.328.328 0 0 1-.263-.016l-.466-.227a.303.303 0 0 1-.174-.199.337.337 0 0 1 .007-.264l3.48-7.45a.342.342 0 0 1 .325-.193.306.306 0 0 1 .127.036l.407.195a.446.446 0 0 1 .21.217c.039.116.066.236.079.357l1.067 7.455 2.676-5.679a.34.34 0 0 1 .196-.174.36.36 0 0 1 .263.016l.472.226a.366.366 0 0 1 .195.333.33.33 0 0 1-.034.131l-3.512 7.456a.323.323 0 0 1-.08.107.32.32 0 0 1-.115.067.32.32 0 0 1-.262-.01l-.4-.195a.41.41 0 0 1-.21-.217ZM172.129 52.648a2.33 2.33 0 0 0 1.119 1.478c.477.362 1.067.533 1.658.482a2.31 2.31 0 0 0 1.262-.668.326.326 0 0 1 .21-.111.304.304 0 0 1 .219.05l.491.315c.032.02.059.045.08.075.021.03.036.065.044.102a.293.293 0 0 1-.03.216c-.269.371-.621.672-1.027.88a2.98 2.98 0 0 1-1.587.344 3.885 3.885 0 0 1-1.917-.68 3.875 3.875 0 0 1-1.346-1.39 3.245 3.245 0 0 1-.381-1.724c.039-.625.224-1.23.539-1.766.128-.218.322-.543.586-.968.263-.425.481-.761.614-.955.341-.519.801-.948 1.341-1.25a3.138 3.138 0 0 1 1.699-.368c.65.051 1.278.27 1.823.636a4.006 4.006 0 0 1 1.433 1.462c.271.486.407 1.035.396 1.59-.008.465-.13.92-.357 1.325a.248.248 0 0 1-.174.123.264.264 0 0 1-.21-.04l-.498-.312a.393.393 0 0 1-.137-.18.372.372 0 0 1 .006-.238c.17-.462.19-.968.058-1.445a2.423 2.423 0 0 0-1.146-1.308 2.267 2.267 0 0 0-.858-.385 2.235 2.235 0 0 0-.936-.001c-.614.164-1.14.56-1.47 1.107-.141.215-.335.513-.574.9-.24.387-.431.698-.557.922a2.527 2.527 0 0 0-.373 1.782ZM187.353 55.12c.216.55.272 1.152.161 1.732a3.835 3.835 0 0 1-.747 1.646 24.62 24.62 0 0 1-1.408 1.777 4.033 4.033 0 0 1-1.443 1.082c-.538.23-1.13.301-1.709.206a3.584 3.584 0 0 1-1.735-.825 3.69 3.69 0 0 1-1.171-1.54 3.135 3.135 0 0 1-.161-1.732c.119-.603.371-1.17.738-1.658.15-.203.384-.497.693-.893.309-.395.551-.684.716-.878a3.861 3.861 0 0 1 1.436-1.086 2.97 2.97 0 0 1 1.708-.207c.645.113 1.25.4 1.749.83.519.402.924.935 1.173 1.545Zm-3.515-1.209a2.435 2.435 0 0 0-1.612.967c-.165.194-.391.466-.68.805-.289.338-.508.642-.658.845a2.477 2.477 0 0 0-.588 1.81c.12.592.442 1.125.911 1.504.469.379 1.053.58 1.651.568a2.44 2.44 0 0 0 1.618-.969c.331-.387.556-.66.686-.806.13-.146.344-.442.644-.849a2.44 2.44 0 0 0 .476-.843c.101-.31.139-.64.113-.966a2.601 2.601 0 0 0-.911-1.505 2.545 2.545 0 0 0-1.651-.567l.001.006ZM189.556 68.897c-.002-.122.01-.244.037-.363l1.506-7.364-4.439 4.406a.331.331 0 0 1-.246.093.312.312 0 0 1-.236-.1l-.37-.38a.335.335 0 0 1-.1-.245.33.33 0 0 1 .103-.241l5.83-5.786a.308.308 0 0 1 .238-.097c.091.002.178.04.244.104l.311.32a.39.39 0 0 1 .126.275c.007.123-.005.246-.037.363l-1.506 7.364 4.438-4.406a.35.35 0 0 1 .245-.099c.091.003.178.04.244.105l.362.375a.347.347 0 0 1 .1.248.323.323 0 0 1-.102.245l-5.848 5.79a.327.327 0 0 1-.246.092.322.322 0 0 1-.242-.098l-.313-.327a.405.405 0 0 1-.099-.274ZM197.706 76.469a3.054 3.054 0 0 1-1.719-.284 4.002 4.002 0 0 1-1.458-1.221l-1.827-2.39a.348.348 0 0 1-.057-.257.305.305 0 0 1 .131-.232l6.46-5.055a.325.325 0 0 1 .254-.055.306.306 0 0 1 .128.039c.04.022.075.052.101.089l1.813 2.327c.408.512.691 1.112.829 1.752a3.228 3.228 0 0 1-.143 1.765 3.567 3.567 0 0 1-1.153 1.519l-.779.622a25.5 25.5 0 0 1-.8.614 3.64 3.64 0 0 1-1.78.767Zm1.622-7.96-5.203 4.065 1.267 1.65c.182.288.425.532.71.715.285.184.606.302.941.347a2.607 2.607 0 0 0 1.705-.574l.751-.57.735-.587a2.58 2.58 0 0 0 .963-1.523 2.454 2.454 0 0 0-.627-1.9l-1.242-1.624ZM198.566 80.495a.351.351 0 0 1 .147-.216l6.88-4.481a.353.353 0 0 1 .479.106l.28.446a.352.352 0 0 1 .051.26.344.344 0 0 1-.148.215l-6.879 4.482a.337.337 0 0 1-.255.055.31.31 0 0 1-.215-.15l-.287-.445a.353.353 0 0 1-.053-.271ZM203.139 85.04a2.297 2.297 0 0 0 .256 1.836c.234.553.664.998 1.204 1.25.463.167.964.185 1.435.05a.316.316 0 0 1 .237.015c.069.03.128.082.169.147l.278.525a.277.277 0 0 1 .014.213.242.242 0 0 1-.132.167 2.783 2.783 0 0 1-1.33.243 3.063 3.063 0 0 1-1.544-.52 3.97 3.97 0 0 1-1.343-1.548 3.905 3.905 0 0 1-.489-1.865 3.157 3.157 0 0 1 .492-1.684 3.838 3.838 0 0 1 1.335-1.256c.217-.132.549-.31.989-.55l1.003-.52a3.858 3.858 0 0 1 1.792-.388 3.123 3.123 0 0 1 1.663.526 3.81 3.81 0 0 1 1.277 1.458c.349.601.534 1.285.534 1.98a3.077 3.077 0 0 1-.431 1.579 2.889 2.889 0 0 1-.942.973.262.262 0 0 1-.212.013.256.256 0 0 1-.166-.135l-.277-.518a.336.336 0 0 1 .088-.427c.373-.317.637-.744.757-1.222a2.44 2.44 0 0 0-.375-1.7 2.28 2.28 0 0 0-1.384-1.237 2.467 2.467 0 0 0-1.82.231c-.23.11-.544.276-.952.49l-.931.517c-.551.288-.976.77-1.195 1.356ZM205.477 93.32a.31.31 0 0 1 .181-.184l7.539-3.252a.311.311 0 0 1 .261.002.325.325 0 0 1 .19.183l.204.483a.343.343 0 0 1 .007.268.36.36 0 0 1-.179.19l-7.541 3.246a.318.318 0 0 1-.259.004.313.313 0 0 1-.191-.19l-.211-.48a.331.331 0 0 1-.001-.27ZM216.892 99.754a3.058 3.058 0 0 1-.791 1.538 3.817 3.817 0 0 1-1.511.985c-.481.177-.83.305-1.066.383l-1.077.332a4.09 4.09 0 0 1-1.801.115 3.096 3.096 0 0 1-1.557-.754 4.099 4.099 0 0 1-1.191-3.573 3.09 3.09 0 0 1 .791-1.538 4.086 4.086 0 0 1 1.511-.985c.24-.092.596-.215 1.069-.37l1.074-.345a3.827 3.827 0 0 1 1.798-.127c.579.098 1.12.362 1.558.76a4.172 4.172 0 0 1 1.194 3.585l-.001-.006Zm-2.337-2.964a2.451 2.451 0 0 0-1.888-.076c-.248.054-.609.185-1.014.325-.404.14-.768.259-1.008.35a2.401 2.401 0 0 0-1.459 1.19 2.281 2.281 0 0 0-.047 1.759 2.356 2.356 0 0 0 1.092 1.387 2.44 2.44 0 0 0 1.888.076l1.017-.312c.198-.043.524-.186 1.005-.363a2.412 2.412 0 0 0 1.459-1.19 2.268 2.268 0 0 0 .041-1.757 2.326 2.326 0 0 0-1.086-1.389ZM211.336 112.499a1.35 1.35 0 0 1 .229-.287l5.217-5.338-6.117 1.261a.362.362 0 0 1-.258-.049.357.357 0 0 1-.145-.218l-.114-.515a.323.323 0 0 1 .047-.26.327.327 0 0 1 .213-.151l8.031-1.657a.34.34 0 0 1 .135 0c.045.01.087.029.124.055a.315.315 0 0 1 .152.217l.097.439a.389.389 0 0 1-.046.293 1.186 1.186 0 0 1-.223.285l-5.217 5.339 6.117-1.262a.37.37 0 0 1 .405.274l.113.514a.332.332 0 0 1-.046.26.345.345 0 0 1-.215.145l-8.031 1.657a.346.346 0 0 1-.26-.051.359.359 0 0 1-.151-.221l-.097-.439a.42.42 0 0 1 .04-.291ZM214.032 117.798l-1.739-.523a.472.472 0 0 1-.363-.467l-.047-.476a.28.28 0 0 1 .066-.204.305.305 0 0 1 .192-.101.5.5 0 0 1 .178.04l8.272 2.45a.575.575 0 0 1 .473.554l.072.767a.586.586 0 0 1-.077.371.564.564 0 0 1-.289.24l-7.698 3.8a.439.439 0 0 1-.167.069.292.292 0 0 1-.21-.067.263.263 0 0 1-.093-.19l-.047-.476a.479.479 0 0 1 .267-.524l1.622-.806-.412-4.457Zm1.509 3.891 4.354-2.147-4.681-1.396.327 3.543ZM213.556 132.735a.334.334 0 0 1-.24.092l-.458-.013a.34.34 0 0 1-.338-.354l.077-5.219a.354.354 0 0 1 .109-.241.3.3 0 0 1 .109-.075.303.303 0 0 1 .13-.023l8.214.191a.341.341 0 0 1 .238.106.355.355 0 0 1 .1.248l-.007.528a.346.346 0 0 1-.11.24.324.324 0 0 1-.238.098l-7.412-.18-.068 4.349a.346.346 0 0 1-.106.253ZM218.267 144.769a2.094 2.094 0 0 1-1.565.348 2.136 2.136 0 0 1-1.367-.861 2.159 2.159 0 0 1-.363-1.584 2.107 2.107 0 0 1 .847-1.372 2.084 2.084 0 0 1 1.566-.353c.55.097 1.041.408 1.367.866.323.461.453 1.03.362 1.584a2.107 2.107 0 0 1-.847 1.372ZM215.643 160.616a.373.373 0 0 1-.263.017l-.429-.15a1.316 1.316 0 0 1-.443-.298l-6.033-5.051a.42.42 0 0 1-.176-.448l.188-.56a.249.249 0 0 1 .054-.106.256.256 0 0 1 .095-.071.267.267 0 0 1 .23-.017c.05.019.096.047.135.082l6.044 5.069 1.304-3.982a.31.31 0 0 1 .17-.201.37.37 0 0 1 .262-.018l.43.15a.318.318 0 0 1 .2.173.306.306 0 0 1 .039.131.31.31 0 0 1-.019.135l-1.617 4.95a.31.31 0 0 1-.171.195ZM202.983 171.022a3.094 3.094 0 0 1-.488-1.682 3.981 3.981 0 0 1 .47-1.843l1.36-2.666a.34.34 0 0 1 .461-.147l7.298 3.844a.293.293 0 0 1 .107.081c.029.034.05.075.061.119a.316.316 0 0 1-.019.267l-1.317 2.598a4.096 4.096 0 0 1-1.225 1.482 3.003 3.003 0 0 1-1.649.594 3.513 3.513 0 0 1-1.847-.394 29.652 29.652 0 0 1-.901-.462c-.368-.196-.663-.355-.882-.465a3.695 3.695 0 0 1-1.429-1.326Zm7.846-1.795-5.879-3.093-.937 1.846a2.32 2.32 0 0 0-.252 1.947 2.714 2.714 0 0 0 1.247 1.325c.223.129.497.28.839.475.342.196.61.321.841.429a2.53 2.53 0 0 0 1.8.266 2.385 2.385 0 0 0 1.441-1.357l.9-1.838ZM199.689 173.496a.326.326 0 0 1 .256.043l6.948 4.465a.32.32 0 0 1 .151.216.345.345 0 0 1-.04.259l-.279.442a.316.316 0 0 1-.214.151.326.326 0 0 1-.256-.043l-6.954-4.463a.375.375 0 0 1-.152-.217.323.323 0 0 1 .047-.26l.278-.448a.312.312 0 0 1 .215-.145ZM198.099 179.367l-.95-1.567a.459.459 0 0 1 .046-.588l.28-.376a.239.239 0 0 1 .185-.106.23.23 0 0 1 .206.054.564.564 0 0 1 .111.146l4.521 7.421a.596.596 0 0 1-.01.719l-.458.605a.565.565 0 0 1-.677.199l-8.267-2.443a.561.561 0 0 1-.171-.068.253.253 0 0 1-.073-.083.254.254 0 0 1-.033-.104.282.282 0 0 1 .051-.209l.287-.377a.46.46 0 0 1 .546-.204l1.75.514 2.656-3.533Zm-1.479 3.862 4.676 1.383-2.558-4.201-2.118 2.818ZM191.731 193.86a.306.306 0 0 1 .078-.208l.359-.373c.05-.065.12-.11.199-.129a.635.635 0 0 1 .273.033 2.27 2.27 0 0 0 1.046.029 2.118 2.118 0 0 0 1.19-.698c.32-.322.541-.73.637-1.176a1.125 1.125 0 0 0-.354-1.073.992.992 0 0 0-.715-.298 2.104 2.104 0 0 0-.88.25c-.495.248-.977.524-1.442.825-.62.44-1.335.728-2.087.841a1.929 1.929 0 0 1-.818-.141 1.964 1.964 0 0 1-.688-.472 2.26 2.26 0 0 1-.685-1.25 2.84 2.84 0 0 1 .158-1.519 4.614 4.614 0 0 1 .963-1.523 3.983 3.983 0 0 1 1.442-.969c.472-.203.984-.29 1.497-.253a1.91 1.91 0 0 1 1.124.413.308.308 0 0 1 .067.307.268.268 0 0 1-.057.092l-.358.379a.403.403 0 0 1-.2.123.454.454 0 0 1-.274-.033 2.071 2.071 0 0 0-1.12-.046c-.501.129-.949.41-1.284.804a2.868 2.868 0 0 0-.785 1.418 1.21 1.21 0 0 0 .317 1.199.892.892 0 0 0 .744.253c.346-.048.68-.161.985-.332.359-.196.871-.498 1.533-.911a3.51 3.51 0 0 1 1.889-.653 2.178 2.178 0 0 1 1.443.653c.315.298.541.679.652 1.1.111.458.093.938-.052 1.384a3.694 3.694 0 0 1-.884 1.44 3.573 3.573 0 0 1-1.436.968 3.004 3.004 0 0 1-1.437.167 1.955 1.955 0 0 1-1.015-.39.222.222 0 0 1-.044-.113.219.219 0 0 1 .019-.118ZM182.484 202.71a2.15 2.15 0 0 1-1.826-2.389 2.126 2.126 0 0 1 .799-1.398 2.094 2.094 0 0 1 1.546-.424c.275.035.54.126.78.267a2.157 2.157 0 0 1 .775 2.897 2.091 2.091 0 0 1-2.074 1.047ZM169.497 212.393a3.249 3.249 0 0 1-1.521-.327 2.128 2.128 0 0 1-.894-.758.25.25 0 0 1-.046-.207.292.292 0 0 1 .145-.169l.459-.244c.168-.089.301-.105.392-.046.379.284.819.472 1.284.549a2.847 2.847 0 0 0 2.696-1.701 2.377 2.377 0 0 0-.176-1.827 33.772 33.772 0 0 0-.994-1.886 2.276 2.276 0 0 0-1.412-1.27 2.24 2.24 0 0 0-1.866.247 2.56 2.56 0 0 0-1.28 1.349 2.362 2.362 0 0 0 .272 1.911l.168.318 1.61-.855a.3.3 0 0 1 .127-.04.306.306 0 0 1 .134.016.333.333 0 0 1 .205.166l.215.413a.355.355 0 0 1-.138.463l-2.377 1.265a.338.338 0 0 1-.462-.15l-.569-1.078a3.71 3.71 0 0 1-.472-1.815 3.05 3.05 0 0 1 .516-1.695 4.003 4.003 0 0 1 1.509-1.312 3.45 3.45 0 0 1 2.812-.381 3.76 3.76 0 0 1 2.039 1.797c.127.222.305.558.538.994.232.435.404.772.514 1.005a4.23 4.23 0 0 1 .442 1.769 2.994 2.994 0 0 1-.491 1.656 3.984 3.984 0 0 1-1.544 1.333c-.56.319-1.19.494-1.835.51ZM161.046 208.961l-.007-1.831a.457.457 0 0 1 .343-.475l.436-.173a.266.266 0 0 1 .215.006.243.243 0 0 1 .144.152.517.517 0 0 1 .04.182l.065 8.681a.578.578 0 0 1-.374.6l-.711.279a.582.582 0 0 1-.69-.185l-5.837-6.411a.484.484 0 0 1-.112-.153.247.247 0 0 1 .006-.211.253.253 0 0 1 .148-.151l.436-.173a.466.466 0 0 1 .578.117l1.24 1.353 4.08-1.607Zm-3.262 2.52 3.302 3.631-.032-4.912-3.27 1.281ZM148.727 219.607a2.347 2.347 0 0 1-.883-.688 2.38 2.38 0 0 1-.468-1.022 2.535 2.535 0 0 1 .054-1.699 2.703 2.703 0 0 1 1.033-1.202l-2.728-2.77a.486.486 0 0 1-.074-.129.29.29 0 0 1 .032-.21.272.272 0 0 1 .165-.134l.533-.116a.633.633 0 0 1 .622.2l2.624 2.714 2.109-.563-.846-3.159a.325.325 0 0 1 .033-.263.318.318 0 0 1 .205-.156l.508-.11a.322.322 0 0 1 .261.035c.079.045.137.12.163.208l2.145 8.011a.328.328 0 0 1-.033.263.347.347 0 0 1-.211.164l-2.963.781a3.493 3.493 0 0 1-2.281-.155Zm1.258-4.009c-1.225.331-1.727.998-1.443 1.994a1.284 1.284 0 0 0 .763.983c.483.147.999.139 1.475-.024l2.073-.548-.795-2.954-2.073.549ZM142.087 214.545l.399-1.781a.465.465 0 0 1 .441-.385l.466-.068a.236.236 0 0 1 .207.054.3.3 0 0 1 .112.185.627.627 0 0 1-.025.183l-1.875 8.453a.578.578 0 0 1-.499.502l-.755.111a.578.578 0 0 1-.369-.062.598.598 0 0 1-.258-.275l-4.267-7.566a.37.37 0 0 1-.076-.167.254.254 0 0 1 .052-.209.269.269 0 0 1 .183-.112l.459-.066a.473.473 0 0 1 .541.243l.904 1.597 4.36-.637Zm-3.77 1.751 2.412 4.277 1.062-4.781-3.474.504ZM127.394 213.9c.093.079.173.173.237.277l4.33 6.146-.21-6.304a.335.335 0 0 1 .022-.133.31.31 0 0 1 .074-.111.29.29 0 0 1 .235-.11l.523-.015a.346.346 0 0 1 .131.024.367.367 0 0 1 .222.313l.276 8.28a.314.314 0 0 1-.096.244.29.29 0 0 1-.235.11l-.446.011a.397.397 0 0 1-.281-.096 1.48 1.48 0 0 1-.242-.276l-4.333-6.159.216 6.304a.346.346 0 0 1-.096.244.308.308 0 0 1-.235.11l-.523.015a.324.324 0 0 1-.242-.099.313.313 0 0 1-.111-.238l-.276-8.28a.312.312 0 0 1 .089-.243.323.323 0 0 1 .242-.112l.439-.009a.404.404 0 0 1 .29.107ZM116.512 222.064a.354.354 0 0 1-.088-.25l.035-.461a.358.358 0 0 1 .123-.237.331.331 0 0 1 .254-.055l2.368.202.579-7.465a.328.328 0 0 1 .124-.231.329.329 0 0 1 .114-.07.301.301 0 0 1 .133-.016l.517.045a.328.328 0 0 1 .234.12.349.349 0 0 1 .056.257l-.556 7.447 2.368.202a.333.333 0 0 1 .234.12.349.349 0 0 1 .056.257l-.034.46a.338.338 0 0 1-.117.236.327.327 0 0 1-.254.055l-5.95-.495a.352.352 0 0 1-.196-.121ZM114.269 212.884a.323.323 0 0 1 .056.257l-1.257 8.147a.327.327 0 0 1-.139.221.319.319 0 0 1-.121.056.314.314 0 0 1-.133-.001l-.51-.079a.354.354 0 0 1-.288-.397l1.256-8.148a.335.335 0 0 1 .393-.276l.511.08a.33.33 0 0 1 .232.14ZM108.306 213.734l1.042-1.487a.463.463 0 0 1 .555-.193l.455.118a.284.284 0 0 1 .098.046c.029.022.054.05.072.081a.257.257 0 0 1 .047.213.432.432 0 0 1-.088.158l-4.93 7.084a.575.575 0 0 1-.654.274l-.742-.187a.59.59 0 0 1-.455-.559l-1.126-8.607a.573.573 0 0 1-.041-.182.308.308 0 0 1 .048-.1.305.305 0 0 1 .083-.073.27.27 0 0 1 .205-.044l.46.117a.48.48 0 0 1 .407.43l.239 1.82 4.325 1.091Zm-4.111.143.634 4.873 2.785-4.006-3.419-.867ZM96.13 208.005a.32.32 0 0 1 .013.267l-2.968 7.696a.319.319 0 0 1-.18.183.337.337 0 0 1-.264.011l-.485-.196a.323.323 0 0 1-.184-.19.332.332 0 0 1-.013-.26l2.987-7.7a.319.319 0 0 1 .18-.184.329.329 0 0 1 .264-.011l.485.197a.313.313 0 0 1 .165.187ZM86.881 203.773c.042.116.068.236.079.358l.968 7.476 2.755-5.643a.339.339 0 0 1 .196-.174.352.352 0 0 1 .264.021l.467.234a.35.35 0 0 1 .192.335.335.335 0 0 1-.037.131l-3.613 7.406a.34.34 0 0 1-.196.173.352.352 0 0 1-.264-.021l-.402-.202a.414.414 0 0 1-.204-.218 1.175 1.175 0 0 1-.079-.358l-.997-7.463-2.75 5.642a.333.333 0 0 1-.196.167.317.317 0 0 1-.263-.015l-.468-.234a.378.378 0 0 1-.175-.205.32.32 0 0 1 .02-.26l3.641-7.399a.327.327 0 0 1 .196-.174.334.334 0 0 1 .263.015l.395.204c.092.04.166.113.208.204ZM80.817 202.054a2.34 2.34 0 0 0-1.097-1.496 2.42 2.42 0 0 0-1.65-.502 2.288 2.288 0 0 0-1.272.656.37.37 0 0 1-.21.105.346.346 0 0 1-.22-.051l-.508-.303a.294.294 0 0 1-.117-.178.263.263 0 0 1 .037-.212c.266-.377.621-.68 1.034-.881a3.055 3.055 0 0 1 1.596-.301 3.956 3.956 0 0 1 1.91.709 3.84 3.84 0 0 1 1.326 1.414 3.19 3.19 0 0 1 .379 1.718 3.928 3.928 0 0 1-.56 1.757c-.128.218-.33.538-.6.964-.27.427-.481.762-.623.944-.35.516-.818.939-1.364 1.235-.52.28-1.109.408-1.699.368a3.807 3.807 0 0 1-1.81-.665 3.942 3.942 0 0 1-1.411-1.48 3.087 3.087 0 0 1-.354-1.605c.014-.461.137-.912.36-1.313a.285.285 0 0 1 .175-.117.25.25 0 0 1 .21.04l.493.32a.336.336 0 0 1 .125.419c-.173.46-.2.964-.078 1.443a2.468 2.468 0 0 0 1.13 1.325 2.296 2.296 0 0 0 1.793.412 2.466 2.466 0 0 0 1.481-1.09 21.8 21.8 0 0 0 .588-.896c.246-.388.44-.687.573-.906a2.574 2.574 0 0 0 .363-1.833ZM65.625 199.373a3.134 3.134 0 0 1-.137-1.737c.127-.6.39-1.161.769-1.639l.693-.892c.159-.193.401-.475.74-.857a3.985 3.985 0 0 1 1.454-1.065 3.076 3.076 0 0 1 1.712-.187 4.059 4.059 0 0 1 1.727.853c.501.42.896.954 1.15 1.558.208.553.255 1.154.135 1.731a3.954 3.954 0 0 1-.76 1.643c-.15.204-.39.499-.707.889l-.725.867c-.395.463-.89.829-1.447 1.07a3.044 3.044 0 0 1-1.713.181 3.664 3.664 0 0 1-1.735-.852 3.77 3.77 0 0 1-1.156-1.563Zm3.528 1.271a2.435 2.435 0 0 0 1.631-.938l.686-.806c.29-.339.511-.63.667-.835.216-.242.38-.525.485-.833a2.47 2.47 0 0 0 .126-.961 2.598 2.598 0 0 0-.886-1.527 2.541 2.541 0 0 0-1.648-.597 2.413 2.413 0 0 0-1.63.945c-.332.38-.565.648-.693.807-.127.159-.351.438-.657.846a2.416 2.416 0 0 0-.486.833 2.455 2.455 0 0 0-.125.961c.11.596.423 1.135.887 1.523a2.545 2.545 0 0 0 1.646.595l-.003-.013ZM63.609 185.563a1.33 1.33 0 0 1-.043.364l-1.628 7.344 4.5-4.34a.351.351 0 0 1 .489.012l.357.383a.315.315 0 0 1 .094.249.326.326 0 0 1-.103.239l-5.888 5.699a.343.343 0 0 1-.484-.013l-.312-.327a.408.408 0 0 1-.119-.276 1.333 1.333 0 0 1 .043-.364l1.627-7.344-4.498 4.34a.351.351 0 0 1-.49-.012l-.358-.383a.304.304 0 0 1-.092-.242.32.32 0 0 1 .102-.246l5.889-5.693a.305.305 0 0 1 .245-.093.324.324 0 0 1 .238.106l.311.321a.415.415 0 0 1 .12.276ZM55.565 177.881a2.983 2.983 0 0 1 1.707.286 3.947 3.947 0 0 1 1.443 1.238l1.83 2.408a.328.328 0 0 1 .058.257.387.387 0 0 1-.131.232l-6.533 4.959a.33.33 0 0 1-.254.055.302.302 0 0 1-.231-.133l-1.76-2.352a4.162 4.162 0 0 1-.812-1.795 3.132 3.132 0 0 1 .17-1.765 3.61 3.61 0 0 1 1.169-1.502c.198-.161.459-.362.794-.612.334-.25.595-.451.802-.601a3.63 3.63 0 0 1 1.748-.675Zm-1.73 7.938 5.257-3.999-1.242-1.656a2.361 2.361 0 0 0-.707-.728 2.307 2.307 0 0 0-.943-.359 2.615 2.615 0 0 0-1.718.55l-.754.558-.742.581a2.54 2.54 0 0 0-.963 1.523 2.415 2.415 0 0 0 .598 1.914l1.214 1.616ZM54.746 173.834a.31.31 0 0 1-.147.216l-6.934 4.415a.334.334 0 0 1-.26.042.348.348 0 0 1-.214-.156l-.28-.446a.35.35 0 0 1 .109-.478l6.94-4.383a.337.337 0 0 1 .26-.042.352.352 0 0 1 .214.156l.28.446a.344.344 0 0 1 .032.23ZM50.248 169.24a2.326 2.326 0 0 0-.225-1.844 2.473 2.473 0 0 0-1.214-1.261 2.311 2.311 0 0 0-1.43-.064.351.351 0 0 1-.238-.014.367.367 0 0 1-.164-.155l-.272-.526a.27.27 0 0 1-.046-.207.262.262 0 0 1 .133-.167 2.8 2.8 0 0 1 1.334-.223 3.056 3.056 0 0 1 1.542.539 4.465 4.465 0 0 1 1.788 3.45 3.206 3.206 0 0 1-.514 1.675c-.344.52-.81.946-1.357 1.241-.22.126-.55.303-.994.531l-.931.491a3.855 3.855 0 0 1-1.792.389 3.174 3.174 0 0 1-1.656-.555 3.878 3.878 0 0 1-1.26-1.474 3.983 3.983 0 0 1-.504-1.987 3.09 3.09 0 0 1 .451-1.576c.24-.392.568-.72.959-.957a.27.27 0 0 1 .211-.013.276.276 0 0 1 .161.142l.271.52a.348.348 0 0 1-.094.428 2.36 2.36 0 0 0-.772 1.212 2.449 2.449 0 0 0 .332 1.709 2.302 2.302 0 0 0 1.33 1.229c.614.172 1.268.1 1.827-.199l.954-.477.94-.506a2.489 2.489 0 0 0 1.23-1.351ZM48.026 160.926a.347.347 0 0 1-.187.186l-7.583 3.143a.309.309 0 0 1-.26-.003.322.322 0 0 1-.184-.184l-.205-.489a.362.362 0 0 1 0-.263.344.344 0 0 1 .185-.192l7.584-3.143a.31.31 0 0 1 .26.002.325.325 0 0 1 .185.191l.204.482a.357.357 0 0 1 .001.27ZM36.694 154.337a3.02 3.02 0 0 1 .812-1.53c.428-.433.95-.758 1.526-.949l1.069-.37 1.087-.315a4.049 4.049 0 0 1 1.798-.094 3.072 3.072 0 0 1 1.55.781 4.14 4.14 0 0 1 1.142 3.584 3.082 3.082 0 0 1-.82 1.525c-.423.442-.942.78-1.517.986l-1.078.359c-.474.149-.833.26-1.078.326a3.897 3.897 0 0 1-1.796.107 3.14 3.14 0 0 1-1.551-.787 4.167 4.167 0 0 1-1.145-3.597v-.026Zm2.297 2.991a2.465 2.465 0 0 0 1.888.103c.248-.054.61-.178 1.017-.312.405-.134.77-.246 1.012-.332a2.42 2.42 0 0 0 1.472-1.193 2.272 2.272 0 0 0 .065-1.762 2.325 2.325 0 0 0-1.069-1.398 2.445 2.445 0 0 0-1.881-.105l-1.025.301c-.199.044-.534.175-1.01.344a2.425 2.425 0 0 0-.856.433 2.426 2.426 0 0 0-.62.736 2.272 2.272 0 0 0-.067 1.762 2.32 2.32 0 0 0 1.074 1.423ZM42.425 141.679c-.062.105-.14.199-.23.28l-5.316 5.275 6.128-1.179a.31.31 0 0 1 .136 0 .304.304 0 0 1 .124.056.354.354 0 0 1 .145.218l.114.514a.326.326 0 0 1-.053.262.34.34 0 0 1-.215.145l-8.056 1.544a.32.32 0 0 1-.253-.057.287.287 0 0 1-.145-.218l-.097-.439a.445.445 0 0 1 .044-.299c.066-.101.144-.193.232-.274l5.34-5.28-6.164 1.16a.34.34 0 0 1-.26-.055.364.364 0 0 1-.146-.224l-.114-.515a.32.32 0 0 1 .054-.255.292.292 0 0 1 .215-.145l8.054-1.55a.326.326 0 0 1 .253.057.312.312 0 0 1 .147.224l.097.439c.03.106.018.22-.034.316ZM39.795 136.325l1.738.543a.494.494 0 0 1 .358.474l.034.479a.238.238 0 0 1-.066.199.251.251 0 0 1-.192.1.497.497 0 0 1-.178-.04l-8.24-2.562a.603.603 0 0 1-.466-.556l-.058-.763a.576.576 0 0 1 .373-.607l7.775-3.691a.463.463 0 0 1 .18-.039.253.253 0 0 1 .203.068.32.32 0 0 1 .101.195l.033.472a.467.467 0 0 1-.275.52l-1.632.788.312 4.42Zm-1.447-3.911-4.387 2.088 4.661 1.453-.274-3.541ZM40.481 121.421a.365.365 0 0 1 .246-.092l.453.02a.331.331 0 0 1 .24.112.316.316 0 0 1 .093.249l-.148 5.222a.348.348 0 0 1-.11.24.362.362 0 0 1-.245.093l-8.208-.31a.354.354 0 0 1-.24-.112.333.333 0 0 1-.094-.25l.014-.529a.323.323 0 0 1 .11-.234.34.34 0 0 1 .245-.099l7.408.28.133-4.35a.33.33 0 0 1 .103-.24ZM35.939 109.298a2.004 2.004 0 0 1 1.568-.34 2.132 2.132 0 0 1 1.709 2.265c-.028.346-.14.679-.325.969a2.074 2.074 0 0 1-2.711.723 2.13 2.13 0 0 1-.769-.678 2.167 2.167 0 0 1-.337-1.589 2.12 2.12 0 0 1 .862-1.362l.003.012ZM38.78 93.495a.306.306 0 0 1 .263-.017l.43.156c.164.071.312.173.437.3l5.968 5.137a.414.414 0 0 1 .164.45l-.19.554a.286.286 0 0 1-.155.179.284.284 0 0 1-.232.01.312.312 0 0 1-.13-.09l-5.976-5.149-1.353 3.967a.354.354 0 0 1-.44.213l-.431-.156a.332.332 0 0 1-.195-.174.346.346 0 0 1-.02-.266l1.69-4.919a.294.294 0 0 1 .17-.195ZM51.573 83.277c.313.506.474 1.093.463 1.687a4.037 4.037 0 0 1-.498 1.836l-1.365 2.642a.34.34 0 0 1-.336.182.32.32 0 0 1-.127-.043l-7.254-3.938a.342.342 0 0 1-.163-.208.349.349 0 0 1 .02-.26l1.379-2.586a4.095 4.095 0 0 1 1.24-1.471 3.063 3.063 0 0 1 1.66-.57A3.586 3.586 0 0 1 48.44 81c.227.115.528.273.888.464l.876.467c.564.32 1.036.785 1.369 1.345Zm-7.866 1.707 5.832 3.176.968-1.826c.184-.284.304-.606.351-.943.047-.338.02-.682-.08-1.008a2.703 2.703 0 0 0-1.226-1.344c-.217-.13-.497-.28-.826-.478l-.845-.473a2.528 2.528 0 0 0-1.793-.268 2.326 2.326 0 0 0-1.458 1.34l-.923 1.824ZM54.896 80.85a.308.308 0 0 1-.257-.05l-6.89-4.556a.35.35 0 0 1-.146-.218.317.317 0 0 1 .047-.26l.28-.441a.352.352 0 0 1 .478-.098l6.906 4.572a.337.337 0 0 1 .146.218.344.344 0 0 1-.047.26l-.285.443a.328.328 0 0 1-.232.13ZM56.574 74.991l.926 1.58a.467.467 0 0 1-.051.589l-.289.37a.277.277 0 0 1-.392.047.465.465 0 0 1-.104-.149l-4.423-7.475a.604.604 0 0 1 .018-.713l.47-.608a.571.571 0 0 1 .68-.187l8.234 2.562c.06.013.119.036.171.069a.263.263 0 0 1 .1.188.282.282 0 0 1-.051.208l-.288.372a.465.465 0 0 1-.555.192l-1.74-.529-2.706 3.484Zm1.531-3.86-4.656-1.44 2.494 4.235 2.162-2.795ZM63.133 60.594a.295.295 0 0 1-.078.207l-.365.375a.383.383 0 0 1-.2.123.771.771 0 0 1-.276-.04 2.31 2.31 0 0 0-1.048-.041 2.094 2.094 0 0 0-1.194.68 2.284 2.284 0 0 0-.651 1.172 1.107 1.107 0 0 0 .334 1.07.976.976 0 0 0 .716.305c.309-.01.611-.089.884-.232.342-.16.822-.427 1.453-.807a4.866 4.866 0 0 1 2.1-.81c.28-.012.559.039.818.148.258.11.49.276.68.485.352.337.588.779.674 1.26a2.9 2.9 0 0 1-.18 1.51 4.492 4.492 0 0 1-1.013 1.533 4.08 4.08 0 0 1-1.448.972c-.475.192-.99.27-1.502.227a1.908 1.908 0 0 1-1.111-.416.251.251 0 0 1-.083-.199.27.27 0 0 1 .079-.2l.359-.374a.419.419 0 0 1 .2-.123.524.524 0 0 1 .275.04c.363.124.752.144 1.124.058.502-.118.955-.39 1.295-.78.393-.385.672-.873.806-1.41a1.222 1.222 0 0 0-.311-1.207.899.899 0 0 0-.709-.267c-.346.047-.68.155-.988.32-.36.19-.88.486-1.545.887a3.526 3.526 0 0 1-1.894.627 2.163 2.163 0 0 1-1.447-.67 2.331 2.331 0 0 1-.635-1.111 2.501 2.501 0 0 1 .067-1.374 4.08 4.08 0 0 1 .92-1.448c.406-.41.894-.729 1.431-.934A3.077 3.077 0 0 1 62.112 60c.372.043.724.195 1.012.437a.22.22 0 0 1 .009.156ZM72.526 51.91c.484.07.93.308 1.262.672.331.364.529.832.558 1.324a2.13 2.13 0 0 1-.4 1.374 2.086 2.086 0 0 1-2.59.66 2.151 2.151 0 0 1-1.166-2.442c.115-.477.39-.899.78-1.192a1.987 1.987 0 0 1 1.556-.397Z"/><path fill="#39485A" fill-rule="evenodd" d="M166.059 90.083H89.941A3.941 3.941 0 0 0 86 94.023v57.689a3.94 3.94 0 0 0 3.94 3.94h27.551l-2.751 15.052a.781.781 0 0 0 .408.852l.71.355a.733.733 0 0 0 .817-.088l20.13-16.171h29.254a3.942 3.942 0 0 0 3.941-3.94V94.024a3.94 3.94 0 0 0-3.941-3.941Z" clip-rule="evenodd"/><path fill="#fff" d="M97.733 130.542a.447.447 0 0 1-.328-.131.523.523 0 0 1-.13-.35.54.54 0 0 1 .043-.197l5.16-11.698h-6.712a.582.582 0 0 1-.394-.153.505.505 0 0 1-.153-.371v-1.859c0-.16.05-.291.153-.393a.579.579 0 0 1 .394-.154h9.904c.175 0 .306.051.394.154a.532.532 0 0 1 .153.393v1.64c0 .219-.022.401-.066.547-.029.131-.08.269-.153.415l-5.138 11.632a1.655 1.655 0 0 1-.24.328c-.102.131-.27.197-.503.197h-2.384Zm16.056 0a.532.532 0 0 1-.393-.153.533.533 0 0 1-.153-.394v-14.212c0-.16.051-.291.153-.393a.529.529 0 0 1 .393-.154h5.488c1.458 0 2.675.234 3.652.7.977.452 1.72 1.123 2.23 2.012.525.874.802 1.96.831 3.258.015.641.022 1.202.022 1.683 0 .481-.007 1.035-.022 1.662-.044 1.356-.313 2.478-.809 3.367-.496.889-1.224 1.553-2.187 1.99-.962.423-2.164.634-3.607.634h-5.598Zm2.93-2.821h2.558c.729 0 1.327-.109 1.793-.328a2.073 2.073 0 0 0 1.028-1.027c.233-.481.357-1.101.372-1.859.014-.422.022-.801.022-1.137.014-.335.014-.67 0-1.006 0-.335-.008-.706-.022-1.115-.029-1.093-.314-1.895-.853-2.405-.525-.525-1.341-.787-2.449-.787h-2.449v9.664Zm12.572 2.821a.532.532 0 0 1-.393-.153.533.533 0 0 1-.153-.394v-14.212c0-.16.051-.291.153-.393a.529.529 0 0 1 .393-.154h2.471c.16 0 .292.051.394.154a.532.532 0 0 1 .153.393v14.212a.533.533 0 0 1-.153.394.534.534 0 0 1-.394.153h-2.471Zm5.347 0a.448.448 0 0 1-.328-.131.499.499 0 0 1-.131-.328c0-.073.007-.139.022-.197l5.204-14.059a.848.848 0 0 1 .262-.416c.131-.116.314-.175.547-.175h2.799c.233 0 .415.059.546.175a.85.85 0 0 1 .263.416l5.203 14.059a.791.791 0 0 1 .022.197.494.494 0 0 1-.131.328.446.446 0 0 1-.328.131h-2.274c-.218 0-.379-.051-.481-.153a.786.786 0 0 1-.197-.284l-.94-2.449h-6.166l-.94 2.449a.774.774 0 0 1-.197.284c-.102.102-.262.153-.481.153h-2.274Zm4.701-5.707h4.526l-2.252-6.297-2.274 6.297Zm16.866 5.926c-1.399 0-2.573-.204-3.52-.613-.933-.408-1.64-.94-2.121-1.596-.481-.656-.736-1.355-.765-2.099 0-.116.043-.218.131-.306a.414.414 0 0 1 .328-.153h2.339c.19 0 .336.044.438.131.102.073.196.168.284.285.102.247.262.488.481.721.233.233.547.43.94.59.394.146.882.219 1.465.219.948 0 1.655-.153 2.121-.459.481-.306.722-.722.722-1.246 0-.379-.132-.686-.394-.919-.248-.233-.649-.444-1.203-.634a23.688 23.688 0 0 0-2.164-.612c-1.094-.233-2.026-.532-2.799-.897-.758-.379-1.334-.86-1.727-1.443-.379-.597-.569-1.333-.569-2.208 0-.875.241-1.647.722-2.318.481-.685 1.159-1.217 2.033-1.596.875-.393 1.917-.59 3.127-.59.977 0 1.837.131 2.58.393.758.263 1.385.605 1.88 1.028.511.423.897.875 1.159 1.356.263.481.401.947.416 1.399a.493.493 0 0 1-.132.328.445.445 0 0 1-.328.131h-2.448a.874.874 0 0 1-.394-.087.655.655 0 0 1-.284-.306c-.088-.379-.35-.707-.787-.984-.423-.292-.977-.438-1.662-.438-.714 0-1.283.132-1.706.394-.408.262-.612.663-.612 1.203 0 .349.102.648.306.896.219.233.576.445 1.072.634.51.175 1.18.372 2.011.59 1.283.263 2.325.576 3.127.941.802.364 1.392.838 1.771 1.421.379.568.569 1.29.569 2.165 0 .976-.277 1.814-.831 2.514-.54.7-1.29 1.239-2.252 1.618-.948.364-2.056.547-3.324.547Z"/></svg>